:SAMPLES-PER-SECOND 30
:FULLY-SPECIFIED
:DEGREES
403
root  0.241421 37.001 8.39352 -4.37622 -60.8069 16.3672
RightUpLeg  -1.50057 -20.3133 -40.0078
RightLeg  7.86499 -27.3259 -7.20259
RightFoot  36.6004 -7.33049 17.0232
RightToes  -6.40286e-010 0 -3.6325e-017
Spine  19.6146 6.44146 18.3211
Spine1  -19.4936 9.16193 -47.2569
HEad  -46.149 -42.5116 25.844
LeftShoulder1  -0.988811 14.8851 -0.166992
LeftArm  -26.2039 35.9998 -46.073
LeftForeArm  -31.815 -19.7517 -6.50982
LeftHand  1.04022 8.92633 32.9612
RightShoulder  0.362544 1.28001 -0.978571
RightArm  -3.74 -7.61602 -27.9441
RightForeArm  7.80522 1.32665 13.1849
RightHand  -0.762067 -2.38712 -29.001
LeftUpLeg  -32.3872 18.3574 3.37652
LeftLeg  24.7365 -8.84092 -4.07375
LeftFoot  -5.90539 1.27617 -25.6988
LeftToes  -2.09187e-010 -4.93792e-011 -8.21189e-011
404
root  0.324909 36.8598 7.66628 -3.85999 -61.3299 15.6616
RightUpLeg  -3.08584 -20.5263 -39.8079
RightLeg  11.8099 -25.3777 -7.17139
RightFoot  31.3161 -8.73924 22.7271
RightToes  -6.40286e-010 0 -3.6325e-017
Spine  20.1123 6.79343 16.4916
Spine1  -17.8122 10.0273 -47.4277
HEad  -50.8037 -41.5466 29.4434
LeftShoulder1  -1.08296 14.2623 -1.71491
LeftArm  -31.3797 34.1034 -47.058
LeftForeArm  -39.1309 -20.9352 -6.3915
LeftHand  1.07693 9.20491 31.7676
RightShoulder  0.439567 1.7495 -0.0869919
RightArm  -0.480273 -9.7161 -23.3418
RightForeArm  10.1806 0.183823 14.1129
RightHand  -0.906258 -1.92432 -29.859
LeftUpLeg  -32.3006 17.2722 5.43087
LeftLeg  23.9377 -7.69263 -3.38353
LeftFoot  -5.74648 1.39766 -27.4384
LeftToes  -2.09187e-010 -4.93792e-011 -8.21189e-011
405
root  0.380795 36.643 6.96567 -3.23853 -62.566 14.7472
RightUpLeg  -5.16601 -23.8301 -39.3191
RightLeg  15.3238 -20.4154 -6.42539
RightFoot  26.328 -9.40729 27.6724
RightToes  -6.40286e-010 0 -3.6325e-017
Spine  21.0293 7.39329 14.8678
Spine1  -16.9619 10.9503 -47.3315
HEad  -52.9523 -41.2814 31.5721
LeftShoulder1  -1.12253 13.778 -2.68743
LeftArm  -36.8345 31.8688 -45.5026
LeftForeArm  -46.8348 -22.0079 -6.45356
LeftHand  1.09852 9.50932 30.1735
RightShoulder  0.511495 2.07146 0.83399
RightArm  1.81284 -13.546 -17.6298
RightForeArm  10.0014 -0.306478 14.5299
RightHand  -1.04292 -1.53035 -30.8409
LeftUpLeg  -32.3151 18.7645 7.13063
LeftLeg  23.7019 -7.72995 -3.36495
LeftFoot  -5.9264 1.43716 -29.0565
LeftToes  -2.09187e-010 -4.93792e-011 -8.21189e-011
406
root  0.446581 36.3245 6.31884 -2.42529 -63.6224 13.7971
RightUpLeg  -8.07628 -28.9987 -38.6268
RightLeg  19.7999 -13.1809 -5.3701
RightFoot  21.5849 -9.22017 31.0404
RightToes  -6.40286e-010 0 -3.6325e-017
Spine  22.0656 7.78908 13.5242
Spine1  -16.8179 11.3419 -46.64
HEad  -53.7813 -41.3578 32.4188
LeftShoulder1  -1.14084 13.4219 -3.33861
LeftArm  -41.3641 29.0583 -41.3983
LeftForeArm  -53.5817 -22.4428 -6.46843
LeftHand  1.14576 9.89817 28.8426
RightShoulder  0.589909 2.13677 2.30837
RightArm  3.49497 -19.0613 -12
RightForeArm  7.08611 0.475059 14.5782
RightHand  -1.12866 -1.22785 -30.9494
LeftUpLeg  -33.1292 20.0179 8.6744
LeftLeg  24.5588 -7.64616 -3.46356
LeftFoot  -5.6709 1.55216 -30.011
LeftToes  -2.09187e-010 -4.93792e-011 -8.21189e-011
407
root  0.521472 35.8858 5.72176 -1.99695 -64.5195 13.2172
RightUpLeg  -11.8023 -32.9623 -38.1464
RightLeg  25.9004 -6.65235 -3.71739
RightFoot  17.3462 -8.45004 32.7043
RightToes  -6.40286e-010 0 -3.6325e-017
Spine  22.9165 7.82353 12.3216
Spine1  -16.6547 11.2141 -45.0509
HEad  -54.3561 -40.8173 32.3947
LeftShoulder1  -1.1398 13.284 -3.50977
LeftArm  -44.4048 25.8704 -36.0805
LeftForeArm  -55.9445 -22.2843 -6.24368
LeftHand  1.17393 10.0057 28.8788
RightShoulder  0.657487 1.91714 4.21195
RightArm  5.02213 -25.2233 -6.3189
RightForeArm  2.74798 2.0596 14.5454
RightHand  -1.12336 -1.06852 -29.7084
LeftUpLeg  -34.3409 20.0966 10.3802
LeftLeg  26.4695 -7.07041 -3.47365
LeftFoot  -5.27512 1.70571 -30.8952
LeftToes  -2.09187e-010 -4.93792e-011 -8.21189e-011
408
root  0.597009 35.3636 5.149 -2.1687 -66.1348 13.1951
RightUpLeg  -16.6278 -35.131 -37.4343
RightLeg  32.7989 -1.86649 -1.54801
RightFoot  14.3255 -7.57474 32.8557
RightToes  -6.40286e-010 0 -3.6325e-017
Spine  23.541 7.69363 11.2008
Spine1  -16.3208 10.9724 -42.9175
HEad  -54.5046 -39.4173 31.7927
LeftShoulder1  -1.12681 13.5891 -2.97135
LeftArm  -46.1496 22.9601 -30.4037
LeftForeArm  -53.4127 -21.8889 -5.92219
LeftHand  1.13581 9.64287 30.2153
RightShoulder  0.710292 1.61427 6.19008
RightArm  7.09819 -31.1202 -0.0543706
RightForeArm  -2.04971 4.35944 14.5404
RightHand  -1.09369 -0.966602 -28.3225
LeftUpLeg  -35.3801 20.2347 12.2429
LeftLeg  28.87 -6.07852 -3.27171
LeftFoot  -4.88619 1.84781 -31.5049
LeftToes  -2.09187e-010 -4.93792e-011 -8.21189e-011
409
root  0.681418 34.8519 4.54455 -3.13086 -68.921 13.8613
RightUpLeg  -22.3415 -35.8371 -35.9769
RightLeg  39.2926 1.23196 0.799115
RightFoot  12.6418 -6.83989 31.8609
RightToes  -6.40286e-010 0 -3.6325e-017
Spine  24.0885 7.6288 10.041
Spine1  -16.2081 10.7434 -40.3966
HEad  -53.3944 -37.6173 30.433
LeftShoulder1  -1.07929 14.2637 -1.6825
LeftArm  -46.5303 20.8425 -24.4694
LeftForeArm  -48.6897 -21.2963 -5.53472
LeftHand  1.14432 9.3666 32.3223
RightShoulder  0.757695 1.39102 8.00006
RightArm  9.87828 -36.6926 6.73151
RightForeArm  -7.10882 7.71665 14.1206
RightHand  -1.09204 -0.884061 -27.7788
LeftUpLeg  -35.6091 21.2287 14.2821
LeftLeg  30.8431 -4.70789 -2.67795
LeftFoot  -3.91799 2.12958 -31.7054
LeftToes  -2.09187e-010 -4.93792e-011 -8.21189e-011
410
root  0.763152 34.3981 3.90556 -5.54858 -72.3435 15.7429
RightUpLeg  -27.8167 -35.8435 -34.1744
RightLeg  44.7222 3.34275 3.2323
RightFoot  11.4141 -6.16477 30.3721
RightToes  -6.40286e-010 0 -3.6325e-017
Spine  24.6631 7.61816 8.61299
Spine1  -16.4004 10.379 -36.7581
HEad  -50.8327 -35.6157 28.0128
LeftShoulder1  -0.941444 14.9401 0.351447
LeftArm  -45.2385 19.6268 -18.6479
LeftForeArm  -42.8327 -20.4038 -5.04905
LeftHand  1.19857 9.26021 34.5467
RightShoulder  0.785747 1.15443 9.56927
RightArm  11.941 -41.9442 13.6749
RightForeArm  -11.9368 11.3593 12.9783
RightHand  -1.07726 -0.897319 -27.4916
LeftUpLeg  -34.666 22.5311 16.5345
LeftLeg  32.0735 -3.20487 -1.808
LeftFoot  -2.48768 2.58444 -32.3632
LeftToes  -2.09187e-010 -4.93792e-011 -8.21189e-011
411
root  0.809617 34.0436 3.23053 -8.95166 -75.7742 18.5536
RightUpLeg  -32.4127 -35.8462 -32.0486
RightLeg  48.9344 5.03589 5.83096
RightFoot  9.96803 -5.48905 28.9739
RightToes  -6.40286e-010 0 -3.6325e-017
Spine  25.0245 7.57682 6.87569
Spine1  -16.8079 9.75125 -31.3778
HEad  -47.3457 -33.1273 24.5225
LeftShoulder1  -0.690546 15.4418 3.11538
LeftArm  -42.6038 19.2514 -13.6916
LeftForeArm  -34.818 -19.4385 -4.68196
LeftHand  1.22457 9.1192 36.4089
RightShoulder  0.778169 0.775029 11.0557
RightArm  11.5484 -46.3967 20.2429
RightForeArm  -15.7252 13.8936 11.7367
RightHand  -1.05871 -0.911545 -27.1177
LeftUpLeg  -32.7258 23.7318 19.0726
LeftLeg  32.3041 -1.78355 -0.86066
LeftFoot  -1.17032 3.1256 -34.0814
LeftToes  -2.09187e-010 -4.93792e-011 -8.21189e-011
412
root  0.814498 33.8313 2.48975 -9.46423 -79.2997 18.9564
RightUpLeg  -36.7617 -35.9993 -28.4796
RightLeg  52.0382 6.67863 8.74367
RightFoot  8.79014 -4.98282 27.9089
RightToes  -6.40286e-010 0 -3.6325e-017
Spine  24.8073 7.47312 5.31611
Spine1  -17.6173 8.9559 -24.3799
HEad  -43.2702 -29.8789 19.9178
LeftShoulder1  -0.366064 15.8797 6.30993
LeftArm  -39.5052 19.5364 -10.0196
LeftForeArm  -25.7887 -18.7137 -4.57665
LeftHand  1.26377 9.0474 38.1135
RightShoulder  0.752876 0.336294 12.6437
RightArm  9.69639 -49.8132 25.4303
RightForeArm  -18.8834 15.3277 10.8927
RightHand  -1.06386 -0.89345 -27.1391
LeftUpLeg  -30.4083 25.4372 22.2792
LeftLeg  31.1671 -0.456908 0.0517679
LeftFoot  0.12782 3.74933 -36.1907
LeftToes  -2.09187e-010 -4.93792e-011 -8.21189e-011
413
root  0.799153 33.7439 1.68198 3.86426 -83.0546 6.25525
RightUpLeg  -41.4086 -36.0691 -22.639
RightLeg  54.2245 8.67761 12.3353
RightFoot  8.53566 -4.79949 27.2565
RightToes  -6.40286e-010 0 -3.6325e-017
Spine  23.8959 7.30788 4.46693
Spine1  -18.8191 8.24369 -15.8094
HEad  -38.6521 -25.5984 13.8261
LeftShoulder1  -0.0492922 16.3174 9.22438
LeftArm  -36.5911 20.093 -7.49355
LeftForeArm  -18.8018 -18.0908 -4.56021
LeftHand  1.34178 9.04634 40.228
RightShoulder  0.734407 0.0114749 14.0744
RightArm  9.44666 -52.417 28.3767
RightForeArm  -22.5207 16.8735 10.0031
RightHand  -1.05266 -0.994213 -27.4555
LeftUpLeg  -27.9634 28.1575 26.775
LeftLeg  28.6156 0.704013 0.76387
LeftFoot  1.99694 4.59943 -38.0844
LeftToes  -2.09187e-010 -4.93792e-011 -8.21189e-011
414
root  0.762674 33.7368 0.830846 45.5128 -85.3233 -34.265
RightUpLeg  -45.6947 -35.9871 -15.3415
RightLeg  55.5564 11.2007 16.6111
RightFoot  8.44339 -4.73328 27.0183
RightToes  -6.40286e-010 0 -3.6325e-017
Spine  22.4684 7.06645 3.86866
Spine1  -19.7516 7.69408 -5.35209
HEad  -34.0297 -19.9167 6.35413
LeftShoulder1  0.176254 16.6733 11.1735
LeftArm  -34.3302 20.4091 -5.70246
LeftForeArm  -14.7955 -17.1417 -4.48735
LeftHand  1.46686 9.12968 42.656
RightShoulder  0.719075 -0.169244 14.8284
RightArm  12.0245 -54.2431 29.292
RightForeArm  -26.5412 19.2436 8.58593
RightHand  -1.02941 -1.0964 -27.4833
LeftUpLeg  -24.9517 30.8538 32.5175
LeftLeg  24.7528 2.01705 1.34947
LeftFoot  5.01274 5.97318 -40.1521
LeftToes  -2.09187e-010 -4.93792e-011 -8.21189e-011
415
root  0.682557 33.8164 -0.0816521 94.017 -84.0694 -81.3953
RightUpLeg  -48.7879 -36.0126 -8.2884
RightLeg  56.0524 13.8393 20.6294
RightFoot  6.92465 -4.3278 26.7633
RightToes  -6.40286e-010 0 -3.6325e-017
Spine  20.8079 6.68638 2.18792
Spine1  -19.842 6.99004 6.4247
HEad  -30.2774 -13.048 -1.25325
LeftShoulder1  0.304637 16.7674 12.2548
LeftArm  -32.9427 20.0696 -4.39341
LeftForeArm  -12.0671 -15.7855 -4.38543
LeftHand  1.6782 9.46003 44.602
RightShoulder  0.683208 -0.35331 14.9738
RightArm  14.8921 -55.1675 29.2529
RightForeArm  -29.125 21.9644 7.02591
RightHand  -1.03015 -1.04827 -27.2084
LeftUpLeg  -21.0023 31.3284 38.2819
LeftLeg  19.3462 5.08256 2.24135
LeftFoot  10.001 8.22337 -42.1184
LeftToes  -2.09187e-010 -4.93792e-011 -8.21189e-011
